<svg id="email-icon" width="40" viewBox="0 0 22 18" fill="none" xmlns="http://www.w3.org/2000/svg">
    <path d="M19.5 9.99989C19.2348 9.99989 18.9804 10.1053 18.7929 10.2928C18.6054 10.4803 18.5 10.7347 18.5 10.9999V14.9999C18.5 15.2651 18.3946 15.5195 18.2071 15.707C18.0196 15.8945 17.7652 15.9999 17.5 15.9999H3.5C3.23478 15.9999 2.98043 15.8945 2.79289 15.707C2.60536 15.5195 2.5 15.2651 2.5 14.9999V5.40989L8.38 11.2999C8.94125 11.8566 9.69951 12.1692 10.49 12.1699C10.8903 12.1709 11.2867 12.0918 11.656 11.9372C12.0252 11.7827 12.3598 11.5558 12.64 11.2699L13.53 10.3899C13.6669 10.1968 13.7309 9.96134 13.7106 9.72547C13.6902 9.48961 13.5869 9.26861 13.4188 9.10181C13.2508 8.93501 13.0291 8.83322 12.7931 8.81456C12.5571 8.79589 12.3221 8.86157 12.13 8.99989L11.2 9.90989C11.0131 10.0931 10.7618 10.1958 10.5 10.1958C10.2382 10.1958 9.98693 10.0931 9.8 9.90989L3.91 3.99989H8.5C8.76522 3.99989 9.01957 3.89454 9.20711 3.707C9.39464 3.51946 9.5 3.26511 9.5 2.99989C9.5 2.73468 9.39464 2.48032 9.20711 2.29279C9.01957 2.10525 8.76522 1.99989 8.5 1.99989H3.5C2.70435 1.99989 1.94129 2.31596 1.37868 2.87857C0.816071 3.44118 0.5 4.20424 0.5 4.99989V14.9999C0.5 15.7955 0.816071 16.5586 1.37868 17.1212C1.94129 17.6838 2.70435 17.9999 3.5 17.9999H17.5C18.2956 17.9999 19.0587 17.6838 19.6213 17.1212C20.1839 16.5586 20.5 15.7955 20.5 14.9999V10.9999C20.5 10.7347 20.3946 10.4803 20.2071 10.2928C20.0196 10.1053 19.7652 9.99989 19.5 9.99989ZM20.55 0.999893C20.0433 0.511407 19.3949 0.196019 18.6978 0.0990018C18.0007 0.00198431 17.2908 0.128327 16.67 0.459893C15.9859 0.0836492 15.1892 -0.0337498 14.4256 0.129168C13.6621 0.292086 12.9827 0.724431 12.5117 1.34713C12.0408 1.96983 11.8097 2.74126 11.8608 3.52033C11.9119 4.2994 12.2417 5.03405 12.79 5.58989L16 8.70989C16.1916 8.89263 16.4452 8.99621 16.71 8.99989C16.8416 9.00065 16.9721 8.97543 17.0939 8.92566C17.2157 8.8759 17.3266 8.80257 17.42 8.70989L20.59 5.53989C21.1748 4.92642 21.4977 4.10931 21.4902 3.26179C21.4828 2.41426 21.1455 1.60297 20.55 0.999893ZM19.14 4.11989L16.67 6.58989L14.21 4.11989C14.0944 4.00236 14.0032 3.86322 13.9414 3.7104C13.8796 3.55759 13.8485 3.39411 13.8499 3.22929C13.8527 2.89641 13.9876 2.57828 14.225 2.34489C14.4624 2.1115 14.7827 1.98197 15.1156 1.98478C15.4485 1.98759 15.7666 2.12252 16 2.35989C16.093 2.45362 16.2036 2.52802 16.3254 2.57878C16.4473 2.62955 16.578 2.65569 16.71 2.65569C16.842 2.65569 16.9727 2.62955 17.0946 2.57878C17.2164 2.52802 17.327 2.45362 17.42 2.35989C17.6577 2.13483 17.9726 2.00941 18.3 2.00941C18.6274 2.00941 18.9423 2.13483 19.18 2.35989C19.4044 2.60042 19.5258 2.91917 19.5184 3.24804C19.5109 3.5769 19.3751 3.8898 19.14 4.11989Z" fill="black"></path>
</svg>